P3
4 4
15
15	15	15	15	15	15	15	15	15	0	15	0	
15	15	15	15	0	8	15	15	15	15	15	15	
15	15	15	15	15	15	15	0	8	15	15	15	
0	15	0	15	15	15	15	15	15	15	15	15	
